PathFileType	4	(X/Y/Z)	C:\Users\dbl\Desktop\LZH\BX\Trimmed_bx_n_10_501.trc
DataRate	CameraRate	NumFrames	NumMarkers	Units	OrigDataRate	OrigDataStartFrame	OrigNumFrames
50.00	50.00	      8	43	mm	50.00	1275	      1457
Frame#	Time	Top.Head			R.Acromium			L.Acromium			Sternum			R.ASIS			L.ASIS			V.Sacral			R.Thigh.Upper			R.Thigh.Front			R.Thigh.Rear			R.Knee.Lat			R.Knee.Med			R.Shank.Upper			R.Shank.Front			R.Shank.Rear			R.Ankle.Lat			R.Midfoot.Lat			R.Toe.Lat			R.Toe.Tip			R.Toe.Med			R.Ankle.Med			R.Midfoot.Sup			R.Heel			L.Thigh.Upper			L.Thigh.Front			L.Thigh.Rear			L.Knee.Lat			L.Knee.Med			L.Shank.Upper			L.Shank.Front			L.Shank.Rear			L.Ankle.Lat			L.Midfoot.Lat			L.Toe.Lat			L.Toe.Tip			L.Toe.Med			L.Ankle.Med			L.Midfoot.Sup			L.Heel			origin1 front left			origin2 front right			origin 3 back right			origin 4 back leftt			
		X1	Y1	Z1	X2	Y2	Z2	X3	Y3	Z3	X4	Y4	Z4	X5	Y5	Z5	X6	Y6	Z6	X7	Y7	Z7	X8	Y8	Z8	X9	Y9	Z9	X10	Y10	Z10	X11	Y11	Z11	X12	Y12	Z12	X13	Y13	Z13	X14	Y14	Z14	X15	Y15	Z15	X16	Y16	Z16	X17	Y17	Z17	X18	Y18	Z18	X19	Y19	Z19	X20	Y20	Z20	X21	Y21	Z21	X22	Y22	Z22	X23	Y23	Z23	X24	Y24	Z24	X25	Y25	Z25	X26	Y26	Z26	X27	Y27	Z27	X28	Y28	Z28	X29	Y29	Z29	X30	Y30	Z30	X31	Y31	Z31	X32	Y32	Z32	X33	Y33	Z33	X34	Y34	Z34	X35	Y35	Z35	X36	Y36	Z36	X37	Y37	Z37	X38	Y38	Z38	X39	Y39	Z39	X40	Y40	Z40	X41	Y41	Z41	X42	Y42	Z42	X43	Y43	Z43	

1275	25.480	-622.54620	237.69356	1833.25989	-625.34070	65.37786	1531.47644	-591.01984	418.15710	1541.77332	-530.25482	242.74205	1344.66309	-558.82996	124.86155	1032.19885	-536.31458	353.53442	1037.95215	-750.95020	250.67216	1062.51160	-636.20618	81.50290	831.57532	-545.60913	139.46384	809.04834	-658.75104	100.36119	720.73254	-671.66046	120.24191	603.83765	-646.19257	228.15054	564.06464	-699.48083	122.27249	538.71588	-619.67542	169.75317	527.72058	-706.51691	115.73131	487.28320	-684.96686	151.18488	212.61343	-608.93964	90.09686	165.39070	-561.96680	68.67434	162.23944	-481.67667	110.70898	156.56372	-527.75964	163.05750	164.31987	-635.26587	227.21129	222.07547	-591.43158	201.26077	172.81104	-718.16809	218.45630	169.24640	-627.62280	433.97803	855.79004	-544.89484	384.30746	814.84296	-650.42365	421.99384	742.91333	-664.77686	401.65732	607.23718	-651.15240	290.35629	570.68860	-679.83746	403.57312	560.98956	-620.27118	348.64740	537.86475	-732.14142	405.25912	496.25623	-678.71313	399.79300	214.38387	-582.36584	451.18771	164.18526	-543.70380	461.58612	156.81023	-479.85324	410.17468	165.56204	-523.51794	370.55536	177.12836	-643.84717	309.95270	210.44087	-592.68231	330.47174	171.32112	-731.99310	328.73633	161.08292	-443.67667	448.83908	147.36800	-450.45840	74.96102	143.81758	-806.18903	82.35562	142.16447	-799.66479	456.63358	145.37347	
1276	25.500	-611.00610	237.53171	1833.14368	-620.42676	65.27966	1531.16125	-586.01324	418.11572	1540.92322	-528.72003	242.70930	1342.89880	-561.99292	124.95816	1031.92273	-538.96277	353.45410	1037.74377	-753.72833	250.89204	1063.42249	-639.43536	81.56239	831.62805	-548.66772	139.33374	809.14514	-661.43665	100.42867	720.61444	-673.72394	120.31569	603.71667	-647.99451	228.43570	564.06512	-701.16589	122.37469	538.58435	-621.33716	169.83008	527.90131	-707.96021	115.82437	487.08609	-685.15948	151.16565	212.57214	-608.94989	90.03067	165.35272	-561.97107	68.66505	162.22911	-481.68555	110.72672	156.58636	-527.77155	163.05095	164.34433	-635.48633	227.19139	222.20398	-591.45990	201.24042	172.82986	-718.22327	218.44418	169.25124	-630.53894	434.03177	855.84119	-547.61798	384.42499	814.96112	-652.92578	422.11789	742.84424	-666.71399	401.80334	607.13568	-651.86072	292.50095	569.53241	-681.55554	403.74753	560.86890	-621.98444	348.79849	537.85773	-733.55115	405.45346	495.92389	-678.89795	399.83475	214.37303	-582.36249	451.21579	164.15016	-543.67529	461.59824	156.79709	-479.85202	410.14063	165.58688	-523.53540	370.52573	177.15706	-643.95349	310.11557	210.56406	-592.69739	330.45905	171.39494	-732.01965	328.87793	161.15334	-443.65460	448.75720	147.26596	-450.45941	74.96890	143.81796	-806.19281	82.34174	142.18451	-799.65564	456.63541	145.35974	
1277	25.520	-598.51996	237.28732	1832.71411	-615.18494	65.17534	1530.62451	-580.73254	418.08252	1539.80823	-527.18268	242.66733	1340.90112	-565.41693	125.06584	1031.63879	-541.83423	353.37277	1037.47571	-756.73804	251.11765	1064.35510	-642.94824	81.65710	831.68005	-551.96375	139.21562	809.26483	-664.34247	100.50866	720.48468	-675.95154	120.41469	603.57642	-649.92334	228.75514	564.06201	-702.99243	122.49576	538.42975	-623.12195	169.88548	528.05463	-709.52582	115.91679	486.85526	-685.36426	151.14780	212.53278	-608.95764	89.95800	165.31081	-561.97583	68.65151	162.21817	-481.70200	110.75797	156.61674	-527.79999	163.02666	164.38252	-635.69409	227.15828	222.36070	-591.46765	201.22400	172.84692	-718.26971	218.42136	169.25052	-633.73651	434.03220	855.87012	-550.58368	384.54599	815.09717	-655.63910	422.20636	742.78339	-668.82910	401.93597	607.03784	-652.41687	295.15332	568.07959	-683.43726	403.90945	560.72113	-623.81378	348.97476	537.87134	-735.10516	405.62192	495.55991	-679.12512	399.90060	214.36021	-582.36035	451.25482	164.11037	-543.63763	461.61533	156.78601	-479.85794	410.09482	165.60434	-523.58881	370.54047	177.21007	-644.04938	310.23602	210.68427	-592.74030	330.46201	171.46428	-732.04529	329.02850	161.21820	-443.63995	448.65869	147.15733	-450.46085	74.97429	143.81911	-806.21942	82.36037	142.20332	-799.64349	456.63156	145.34206	
1278	25.540	-585.05432	236.95682	1831.90051	-609.62097	65.06355	1529.83362	-575.15948	418.04904	1538.37451	-525.65240	242.61200	1338.64709	-569.10645	125.16426	1031.32983	-544.94299	353.29053	1037.13928	-759.99353	251.34798	1065.30396	-646.75122	81.79030	831.72205	-555.49872	139.11882	809.40350	-667.47107	100.60410	720.33942	-678.34985	120.53493	603.42499	-651.98633	229.09779	564.06378	-704.96722	122.63536	538.25494	-625.03070	169.92096	528.17145	-711.21729	116.00488	486.59744	-685.57007	151.11977	212.49831	-608.96570	89.88222	165.26880	-561.98358	68.63277	162.20598	-481.72864	110.80294	156.65526	-527.84534	162.98866	164.42786	-635.87860	227.11154	222.53693	-591.45563	201.20279	172.87238	-718.30518	218.39120	169.24939	-637.23676	433.98843	855.88086	-553.81097	384.67914	815.24072	-658.58765	422.26648	742.73859	-671.13477	402.04819	606.94098	-653.19763	297.62527	566.70990	-685.49933	404.05392	560.54370	-625.75317	349.16559	537.91907	-736.82098	405.74780	495.15973	-679.37988	399.98462	214.33377	-582.36224	451.30624	164.06801	-543.59595	461.64255	156.77531	-479.87268	410.04095	165.61238	-523.67853	370.60812	177.28851	-644.13495	310.30893	210.79645	-592.80383	330.47711	171.52934	-732.07538	329.17508	161.26370	-443.64032	448.56152	147.05794	-450.46313	74.97698	143.82170	-806.25842	82.39879	142.21997	-799.63348	456.62378	145.32561	
1279	25.560	-570.59088	236.54544	1830.62000	-603.74274	64.93765	1528.75427	-569.27435	417.99728	1536.58289	-524.13141	242.54298	1336.11377	-573.05865	125.22847	1030.97131	-548.30536	353.20789	1036.72510	-763.50629	251.58417	1066.26282	-650.84015	81.94983	831.74542	-559.28265	139.05098	809.55231	-670.82233	100.71373	720.17407	-680.92322	120.66970	603.26965	-654.19464	229.43433	564.06805	-707.09302	122.78442	538.06549	-627.06744	169.94086	528.25604	-713.03479	116.08324	486.32425	-685.76935	151.07072	212.46585	-608.97845	89.80377	165.22849	-561.99762	68.60825	162.19083	-481.76636	110.85891	156.70232	-527.90576	162.94266	164.47453	-636.04395	227.04787	222.72313	-591.43158	201.16530	172.91364	-718.33270	218.35638	169.25267	-641.04846	433.92297	855.88208	-557.31647	384.83432	815.37848	-661.79315	422.31699	742.71014	-673.63397	402.13885	606.83795	-654.60095	299.17148	565.84344	-687.74792	404.17719	560.34009	-627.80078	349.36108	538.00635	-738.70361	405.82483	494.72195	-679.64355	400.07938	214.28479	-582.36847	451.37094	164.02312	-543.55560	461.68378	156.76155	-479.89520	409.98651	165.61140	-523.79681	370.72467	177.38503	-644.22064	310.34842	210.89131	-592.88562	330.50708	171.58118	-732.11255	329.30630	161.28709	-443.66150	448.48404	146.98206	-450.46674	74.97797	143.82671	-806.29840	82.44194	142.23479	-799.62976	456.61612	145.31255	
1280	25.580	-555.13916	236.06458	1828.77576	-597.55969	64.78896	1527.34912	-563.06580	417.90656	1534.41309	-522.61719	242.46375	1333.27869	-577.25897	125.23388	1030.54028	-551.94019	353.12549	1036.22290	-767.26514	251.83559	1067.21997	-655.19696	82.11140	831.74310	-563.32886	139.01694	809.70026	-674.38916	100.83184	719.98438	-683.66870	120.81027	603.11389	-656.55951	229.72139	564.06281	-709.36584	122.92607	537.86731	-629.23724	169.94948	528.32483	-714.97406	116.14458	486.04694	-685.96014	150.99142	212.42816	-608.99933	89.72094	165.18854	-562.02026	68.57788	162.17078	-481.81406	110.92029	156.75769	-527.97931	162.89423	164.51939	-636.21259	226.95871	222.90961	-591.40875	201.10178	172.97568	-718.36047	218.31648	169.26402	-645.16071	433.86618	855.88220	-561.10541	385.01727	815.49994	-665.26434	422.38211	742.68872	-676.31586	402.21396	606.71906	-656.86615	299.32278	565.75604	-690.17334	404.27872	560.11798	-629.95795	349.55612	538.12805	-740.74054	405.86356	494.24911	-679.89948	400.18207	214.21085	-582.37555	451.44901	163.97380	-543.52087	461.74033	156.74097	-479.92242	409.94009	165.60289	-523.92944	370.87534	177.48540	-644.32526	310.38406	210.95805	-592.99042	330.56335	171.60596	-732.15460	329.41385	161.29507	-443.70514	448.43933	146.93770	-450.47180	74.97873	143.83521	-806.33093	82.47851	142.24831	-799.63391	456.61423	145.30324	
1281	25.600	-538.74829	235.52715	1826.25989	-591.08252	64.61066	1525.57874	-556.53796	417.76242	1531.86279	-521.10736	242.38014	1330.12158	-581.68042	125.16125	1030.02429	-555.86707	353.04437	1035.62219	-771.21368	252.12543	1068.15417	-659.78918	82.24806	831.71069	-567.64221	139.01711	809.83734	-678.15454	100.94905	719.76819	-686.57245	120.94546	602.95648	-659.08673	229.91562	564.03284	-711.77301	123.04017	537.66327	-631.54321	169.94922	528.39990	-717.02594	116.18006	485.77054	-686.14703	150.87425	212.37726	-609.02899	89.63181	165.14476	-562.05133	68.54190	162.14508	-481.87018	110.97964	156.82016	-528.06464	162.84772	164.56268	-636.42133	226.83093	223.08707	-591.40234	201.00838	173.06206	-718.39874	218.26749	169.28577	-649.54071	433.84872	855.88495	-565.16565	385.22464	815.60236	-668.98816	422.48224	742.65686	-679.15521	402.28485	606.57483	-659.96326	298.10464	566.45245	-692.75098	404.36423	559.88574	-632.22711	349.75146	538.27057	-742.90454	405.89069	493.74673	-680.13824	400.29742	214.11722	-582.37683	451.53912	163.91718	-543.49371	461.81052	156.71083	-479.95145	409.90768	165.58775	-524.06000	371.03998	177.57318	-644.46954	310.45279	210.98947	-593.12854	330.66364	171.59241	-732.19537	329.49332	161.29837	-443.76782	448.43118	146.92407	-450.47800	74.98048	143.84776	-806.35236	82.50381	142.26009	-799.64355	456.62415	145.29903	
1282	25.620	-521.51508	234.94276	1822.96313	-584.32483	64.39993	1523.40588	-549.71448	417.56232	1528.93994	-519.60522	242.29849	1326.62695	-586.28674	125.00172	1029.42749	-560.10071	352.96692	1034.91382	-775.24713	252.48735	1069.03613	-664.57318	82.34151	831.64557	-572.20856	139.04662	809.95612	-682.09125	101.05370	719.52625	-689.61023	121.06158	602.79199	-661.77106	229.99118	563.96667	-714.29486	123.10963	537.45038	-633.98279	169.94057	528.50043	-719.17688	116.18027	485.49060	-686.34033	150.71399	212.30829	-609.06512	89.53619	165.09201	-562.08777	68.50034	162.11557	-481.93451	111.02948	156.88751	-528.16071	162.80583	164.60747	-636.70905	226.65118	223.24841	-591.42682	200.88890	173.17531	-718.45667	218.20316	169.31883	-654.13983	433.89435	855.88654	-569.46674	385.44165	815.69171	-672.92847	422.62610	742.59369	-682.11896	402.36469	606.39819	-663.61658	296.01541	567.66943	-695.44812	404.44803	559.64929	-634.60931	349.95129	538.41650	-745.16119	405.94104	493.21997	-680.36066	400.43536	214.01530	-582.36597	451.63855	163.85060	-543.47406	461.89017	156.67032	-479.98251	409.88947	165.56543	-524.17505	371.19955	177.63573	-644.66705	310.58777	210.98741	-593.31085	330.82474	171.53918	-732.22791	329.54556	161.30547	-443.84128	448.45370	146.93216	-450.48413	74.98378	143.86366	-806.36414	82.51917	142.26842	-799.65314	456.65076	145.30405	
